<svg width="17" height="17" viewBox="0 0 17 17" fill="none" xmlns="http://www.w3.org/2000/svg">
<path d="M8.51242 2.44141C6.30575 2.44141 4.51242 4.23474 4.51242 6.44141V8.36807C4.51242 8.77474 4.33908 9.39474 4.13242 9.74141L3.36575 11.0147C2.89242 11.8014 3.21908 12.6747 4.08575 12.9681C6.95908 13.9281 10.0591 13.9281 12.9324 12.9681C13.7391 12.7014 14.0924 11.7481 13.6524 11.0147L12.8857 9.74141C12.6857 9.39474 12.5124 8.77474 12.5124 8.36807V6.44141C12.5124 4.24141 10.7124 2.44141 8.51242 2.44141Z" stroke="#18918F" stroke-width="2" stroke-miterlimit="10" stroke-linecap="round"/>
<path d="M9.74792 2.63297C9.54125 2.57297 9.32792 2.5263 9.10792 2.49964C8.46792 2.41964 7.85458 2.4663 7.28125 2.63297C7.47458 2.13964 7.95458 1.79297 8.51458 1.79297C9.07458 1.79297 9.55458 2.13964 9.74792 2.63297Z" stroke="#18918F" stroke-width="2" stroke-miterlimit="10" stroke-linecap="round" stroke-linejoin="round"/>
<path d="M10.5156 13.207C10.5156 14.307 9.61563 15.207 8.51563 15.207C7.96896 15.207 7.46229 14.9804 7.10229 14.6204C6.74229 14.2604 6.51562 13.7537 6.51562 13.207" stroke="#18918F" stroke-width="2" stroke-miterlimit="10"/>
</svg>
